<?xml version="1.0" encoding="UTF-8" standalone="no"?>
<!-- Created with Inkscape (http://www.inkscape.org/) -->

<svg
   width="210mm"
   height="297mm"
   viewBox="0 0 210 297"
   version="1.1"
   id="svg5"
   inkscape:version="1.2.1 (9c6d41e410, 2022-07-14)"
   sodipodi:docname="concept.svg"
   xmlns:inkscape="http://www.inkscape.org/namespaces/inkscape"
   xmlns:sodipodi="http://sodipodi.sourceforge.net/DTD/sodipodi-0.dtd"
   xmlns="http://www.w3.org/2000/svg"
   xmlns:svg="http://www.w3.org/2000/svg">
  <sodipodi:namedview
     id="namedview7"
     pagecolor="#ffffff"
     bordercolor="#000000"
     borderopacity="0.25"
     inkscape:showpageshadow="2"
     inkscape:pageopacity="0.0"
     inkscape:pagecheckerboard="0"
     inkscape:deskcolor="#d1d1d1"
     inkscape:document-units="mm"
     showgrid="false"
     inkscape:zoom="0.74564394"
     inkscape:cx="421.78308"
     inkscape:cy="535.10795"
     inkscape:window-width="1920"
     inkscape:window-height="1017"
     inkscape:window-x="-8"
     inkscape:window-y="-8"
     inkscape:window-maximized="1"
     inkscape:current-layer="layer1" />
  <defs
     id="defs2" />
  <g
     inkscape:label="Réteg 1"
     inkscape:groupmode="layer"
     id="layer1">
    <path
       style="fill:none;fill-rule:evenodd;stroke:#000000;stroke-width:0.889;stroke-linecap:square;stop-color:#000000"
       d="m 140.51612,230.5633 c 7.0641,-6.89441 11.87141,7.46731 17.3871,1.95162"
       id="path662" />
    <rect
       style="fill:#ffffff;fill-rule:evenodd;stroke:#000000;stroke-width:1.46416;stroke-linecap:square;stop-color:#000000"
       id="rect1634"
       width="119.67366"
       height="65.424843"
       x="45.163166"
       y="168.65331"
       ry="31.942644" />
    <rect
       style="fill:#666666;fill-rule:evenodd;stroke:none;stroke-width:0.889;stroke-linecap:square;stop-color:#000000"
       id="rect1632"
       width="84.80719"
       height="117.67625"
       x="62.225395"
       y="43.625538"
       ry="10" />
    <rect
       style="fill:#ffffff;fill-rule:evenodd;stroke:#000000;stroke-width:0.889;stroke-linecap:square;stop-color:#000000"
       id="rect969"
       width="84.80719"
       height="117.67625"
       x="62.225395"
       y="36.883602"
       ry="10" />
    <rect
       style="fill:none;fill-rule:evenodd;stroke:#000000;stroke-width:1.39438;stroke-linecap:square;stop-color:#000000"
       id="rect294"
       width="208.60562"
       height="83.236557"
       x="0.6971873"
       y="175.18816" />
    <path
       style="fill:none;fill-rule:evenodd;stroke:#000000;stroke-width:0.889;stroke-linecap:square;stop-color:#000000"
       d="m 10.64516,245.01613 c 7.064098,-6.89441 11.871412,7.46731 17.387096,1.95162"
       id="path522" />
    <path
       style="fill:none;fill-rule:evenodd;stroke:#000000;stroke-width:0.889;stroke-linecap:square;stop-color:#000000"
       d="m 40.451612,238.98614 c 7.064098,-6.89441 11.871412,7.46731 17.387096,1.95162"
       id="path524" />
    <path
       style="fill:none;fill-rule:evenodd;stroke:#000000;stroke-width:0.889;stroke-linecap:square;stop-color:#000000"
       d="m 49.322579,250.38706 c 7.064098,-6.89441 11.871412,7.46731 17.387096,1.95162"
       id="path634" />
    <path
       style="fill:none;fill-rule:evenodd;stroke:#000000;stroke-width:0.889;stroke-linecap:square;stop-color:#000000"
       d="m 79.129031,244.35707 c 7.064098,-6.89441 11.871412,7.46731 17.387096,1.95162"
       id="path636" />
    <path
       style="fill:none;fill-rule:evenodd;stroke:#000000;stroke-width:0.889;stroke-linecap:square;stop-color:#000000"
       d="m 107.87097,238.98614 c 7.06409,-6.89441 11.87141,7.46731 17.38709,1.95162"
       id="path640" />
    <path
       style="fill:none;fill-rule:evenodd;stroke:#000000;stroke-width:0.889;stroke-linecap:square;stop-color:#000000"
       d="m 116.74193,250.38706 c 7.0641,-6.89441 11.87141,7.46731 17.3871,1.95162"
       id="path642" />
    <path
       style="fill:none;fill-rule:evenodd;stroke:#000000;stroke-width:0.889;stroke-linecap:square;stop-color:#000000"
       d="m 146.54838,244.35707 c 7.0641,-6.89441 11.87142,7.46731 17.3871,1.95162"
       id="path644" />
    <path
       style="fill:none;fill-rule:evenodd;stroke:#000000;stroke-width:0.889;stroke-linecap:square;stop-color:#000000"
       d="m 173.16129,238.98614 c 7.06409,-6.89441 11.87141,7.46731 17.38709,1.95162"
       id="path646" />
    <path
       style="fill:none;fill-rule:evenodd;stroke:#000000;stroke-width:0.889;stroke-linecap:square;stop-color:#000000"
       d="m 182.03225,250.38706 c 7.0641,-6.89441 11.87141,7.46731 17.3871,1.95162"
       id="path648" />
    <path
       style="fill:none;fill-rule:evenodd;stroke:#000000;stroke-width:0.889;stroke-linecap:square;stop-color:#000000"
       d="m 34.419354,225.19237 c 7.064098,-6.89441 11.871412,7.46731 17.387096,1.95162"
       id="path652" />
    <path
       style="fill:none;fill-rule:evenodd;stroke:#000000;stroke-width:0.889;stroke-linecap:square;stop-color:#000000"
       d="m 61.716717,218.91147 c 7.064098,-6.89441 11.871412,7.46731 17.387096,1.95162"
       id="path654" />
    <path
       style="fill:none;fill-rule:evenodd;stroke:#000000;stroke-width:0.889;stroke-linecap:square;stop-color:#000000"
       d="m 129.13607,218.91147 c 7.06409,-6.89441 11.87141,7.46731 17.38709,1.95162"
       id="path660" />
    <path
       style="fill:none;fill-rule:evenodd;stroke:#000000;stroke-width:0.889;stroke-linecap:square;stop-color:#000000"
       d="m 170.32257,224.53331 c 7.0641,-6.89441 11.87142,7.46731 17.3871,1.95162"
       id="path664" />
    <path
       style="fill:none;fill-rule:evenodd;stroke:#000000;stroke-width:0.889;stroke-linecap:square;stop-color:#000000"
       d="m 179.64472,193.27172 c 7.06409,-6.89441 11.87141,7.46731 17.38709,1.95162"
       id="path666" />
    <path
       style="fill:none;fill-rule:evenodd;stroke:#000000;stroke-width:0.889;stroke-linecap:square;stop-color:#000000"
       d="m 4.6129015,230.5633 c 7.0640975,-6.89441 11.8714115,7.46731 17.3870955,1.95162"
       id="path670" />
    <path
       style="fill:none;fill-rule:evenodd;stroke:#000000;stroke-width:0.889;stroke-linecap:square;stop-color:#000000"
       d="m 16.677418,198.67956 c 7.064098,-6.89441 11.871412,7.46731 17.387096,1.95162"
       id="path672" />
    <path
       style="fill:none;fill-rule:evenodd;stroke:#000000;stroke-width:0.889;stroke-linecap:square;stop-color:#000000"
       d="m 25.548385,210.08048 c 7.064098,-6.89441 11.871412,7.46731 17.387096,1.95162"
       id="path674" />
    <path
       style="fill:none;fill-rule:evenodd;stroke:#000000;stroke-width:0.889;stroke-linecap:square;stop-color:#000000"
       d="m 52.845748,203.79958 c 7.064098,-6.89441 11.871412,7.46731 17.387096,1.95162"
       id="path676" />
    <path
       style="fill:none;fill-rule:evenodd;stroke:#000000;stroke-width:0.889;stroke-linecap:square;stop-color:#000000"
       d="m 81.587687,198.42865 c 7.06409,-6.89441 11.87141,7.46731 17.387094,1.95162"
       id="path678" />
    <path
       style="fill:none;fill-rule:evenodd;stroke:#000000;stroke-width:0.889;stroke-linecap:square;stop-color:#000000"
       d="m 90.458647,209.82957 c 7.064104,-6.89441 11.871413,7.46731 17.387103,1.95162"
       id="path680" />
    <path
       style="fill:none;fill-rule:evenodd;stroke:#000000;stroke-width:0.889;stroke-linecap:square;stop-color:#000000"
       d="m 120.2651,203.79958 c 7.0641,-6.89441 11.87142,7.46731 17.3871,1.95162"
       id="path682" />
    <path
       style="fill:none;fill-rule:evenodd;stroke:#000000;stroke-width:0.889;stroke-linecap:square;stop-color:#000000"
       d="m 149.3871,198.67956 c 7.06409,-6.89441 11.87141,7.46731 17.38709,1.95162"
       id="path684" />
    <path
       style="fill:none;fill-rule:evenodd;stroke:#000000;stroke-width:0.889;stroke-linecap:square;stop-color:#000000"
       d="m 158.25806,210.08048 c 7.0641,-6.89441 11.87141,7.46731 17.3871,1.95162"
       id="path686" />
    <path
       style="fill:none;fill-rule:evenodd;stroke:#000000;stroke-width:0.889;stroke-linecap:square;stop-color:#000000"
       d="m 10.64516,184.88579 c 7.064098,-6.89441 11.871412,7.46731 17.387096,1.95162"
       id="path688" />
    <path
       style="fill:none;fill-rule:evenodd;stroke:#000000;stroke-width:0.889;stroke-linecap:square;stop-color:#000000"
       d="m 40.451612,178.8558 c 7.064098,-6.89441 11.871412,7.46731 17.387096,1.95162"
       id="path690" />
    <path
       style="fill:none;fill-rule:evenodd;stroke:#000000;stroke-width:0.889;stroke-linecap:square;stop-color:#000000"
       d="m 49.322579,190.25672 c 7.064098,-6.89441 11.871412,7.46731 17.387096,1.95162"
       id="path692" />
    <path
       style="fill:none;fill-rule:evenodd;stroke:#000000;stroke-width:0.889;stroke-linecap:square;stop-color:#000000"
       d="m 76.619937,183.97582 c 7.0641,-6.89441 11.87142,7.46731 17.3871,1.95162"
       id="path694" />
    <path
       style="fill:none;fill-rule:evenodd;stroke:#000000;stroke-width:0.889;stroke-linecap:square;stop-color:#000000"
       d="m 105.36188,178.60489 c 7.06409,-6.89441 11.87141,7.46731 17.38709,1.95162"
       id="path696" />
    <path
       style="fill:none;fill-rule:evenodd;stroke:#000000;stroke-width:0.889;stroke-linecap:square;stop-color:#000000"
       d="m 114.23284,190.00581 c 7.0641,-6.89441 11.87141,7.46731 17.3871,1.95162"
       id="path698" />
    <path
       style="fill:none;fill-rule:evenodd;stroke:#000000;stroke-width:0.889;stroke-linecap:square;stop-color:#000000"
       d="m 146.54838,184.22673 c 7.0641,-6.89441 11.87142,7.46731 17.3871,1.95162"
       id="path700" />
    <path
       style="fill:none;fill-rule:evenodd;stroke:#000000;stroke-width:0.889;stroke-linecap:square;stop-color:#000000"
       d="m 173.16129,178.8558 c 7.06409,-6.89441 11.87141,7.46731 17.38709,1.95162"
       id="path702" />
    <rect
       style="fill:#ffffff;fill-rule:evenodd;stroke:#000000;stroke-width:1.46416;stroke-linecap:square;stop-color:#000000"
       id="rect704"
       width="119.67366"
       height="65.424843"
       x="45.163166"
       y="159.65759"
       ry="17.394255" />
    <rect
       style="fill:#ffffff;fill-rule:evenodd;stroke:#000000;stroke-width:0.889;stroke-linecap:square;stop-color:#000000"
       id="rect764"
       width="14.274656"
       height="14.274656"
       x="54.883644"
       y="163.55426" />
    <rect
       style="fill:#ffffff;fill-rule:evenodd;stroke:#000000;stroke-width:0.889;stroke-linecap:square;stop-color:#000000"
       id="rect766"
       width="14.274656"
       height="14.274656"
       x="69.281425"
       y="163.55426" />
    <rect
       style="fill:#ffffff;fill-rule:evenodd;stroke:#000000;stroke-width:0.889;stroke-linecap:square;stop-color:#000000"
       id="rect768"
       width="14.274656"
       height="14.274656"
       x="83.629356"
       y="163.55426" />
    <rect
       style="fill:#ffffff;fill-rule:evenodd;stroke:#000000;stroke-width:0.889;stroke-linecap:square;stop-color:#000000"
       id="rect788"
       width="14.274656"
       height="14.274656"
       x="54.883644"
       y="206.05775" />
    <rect
       style="fill:#ffffff;fill-rule:evenodd;stroke:#000000;stroke-width:0.889;stroke-linecap:square;stop-color:#000000"
       id="rect790"
       width="14.274656"
       height="14.274656"
       x="69.281425"
       y="206.05775" />
    <rect
       style="fill:#ffffff;fill-rule:evenodd;stroke:#000000;stroke-width:0.889;stroke-linecap:square;stop-color:#000000"
       id="rect792"
       width="14.274656"
       height="14.274656"
       x="83.629356"
       y="206.05775" />
    <rect
       style="fill:#ffffff;fill-rule:evenodd;stroke:#000000;stroke-width:0.889;stroke-linecap:square;stop-color:#000000"
       id="rect794"
       width="14.274656"
       height="14.274656"
       x="98.027122"
       y="191.90697" />
    <rect
       style="fill:#ffffff;fill-rule:evenodd;stroke:#000000;stroke-width:0.889;stroke-linecap:square;stop-color:#000000"
       id="rect796"
       width="14.274656"
       height="14.274656"
       x="112.37505"
       y="191.90697" />
    <rect
       style="fill:#ffffff;fill-rule:evenodd;stroke:#000000;stroke-width:0.889;stroke-linecap:square;stop-color:#000000"
       id="rect798"
       width="14.274656"
       height="14.274656"
       x="126.77283"
       y="191.90697" />
    <rect
       style="fill:#ffffff;fill-rule:evenodd;stroke:#000000;stroke-width:0.889;stroke-linecap:square;stop-color:#000000"
       id="rect800"
       width="14.274656"
       height="14.274656"
       x="141.12076"
       y="191.90697" />
    <rect
       style="fill:#ffffff;fill-rule:evenodd;stroke:#000000;stroke-width:0.889;stroke-linecap:square;stop-color:#000000"
       id="rect802"
       width="14.274656"
       height="14.274656"
       x="98.027122"
       y="206.05775" />
    <rect
       style="fill:#ffffff;fill-rule:evenodd;stroke:#000000;stroke-width:0.889;stroke-linecap:square;stop-color:#000000"
       id="rect804"
       width="14.274656"
       height="14.274656"
       x="112.37505"
       y="206.05775" />
    <rect
       style="fill:#ffffff;fill-rule:evenodd;stroke:#000000;stroke-width:0.889;stroke-linecap:square;stop-color:#000000"
       id="rect806"
       width="14.274656"
       height="14.274656"
       x="126.77283"
       y="206.05775" />
    <rect
       style="fill:#ffffff;fill-rule:evenodd;stroke:#000000;stroke-width:0.889;stroke-linecap:square;stop-color:#000000"
       id="rect808"
       width="14.274656"
       height="14.274656"
       x="141.12076"
       y="206.05775" />
    <rect
       style="fill:#ffffff;fill-rule:evenodd;stroke:#000000;stroke-width:0.889;stroke-linecap:square;stop-color:#000000"
       id="rect810"
       width="14.274656"
       height="14.274656"
       x="98.027122"
       y="163.55426" />
    <rect
       style="fill:#ffffff;fill-rule:evenodd;stroke:#000000;stroke-width:0.889;stroke-linecap:square;stop-color:#000000"
       id="rect812"
       width="14.274656"
       height="14.274656"
       x="112.37505"
       y="163.55426" />
    <rect
       style="fill:#ffffff;fill-rule:evenodd;stroke:#000000;stroke-width:0.889;stroke-linecap:square;stop-color:#000000"
       id="rect814"
       width="14.274656"
       height="14.274656"
       x="126.77283"
       y="163.55426" />
    <rect
       style="fill:#ffffff;fill-rule:evenodd;stroke:#000000;stroke-width:0.889;stroke-linecap:square;stop-color:#000000"
       id="rect816"
       width="14.274656"
       height="14.274656"
       x="141.12076"
       y="163.55426" />
    <rect
       style="fill:#ffffff;fill-rule:evenodd;stroke:#000000;stroke-width:0.889;stroke-linecap:square;stop-color:#000000"
       id="rect818"
       width="14.274656"
       height="14.274656"
       x="98.027122"
       y="177.70505" />
    <rect
       style="fill:#ffffff;fill-rule:evenodd;stroke:#000000;stroke-width:0.889;stroke-linecap:square;stop-color:#000000"
       id="rect820"
       width="14.274656"
       height="14.274656"
       x="112.37505"
       y="177.70505" />
    <rect
       style="fill:#ffffff;fill-rule:evenodd;stroke:#000000;stroke-width:0.889;stroke-linecap:square;stop-color:#000000"
       id="rect822"
       width="14.274656"
       height="14.274656"
       x="126.77283"
       y="177.70505" />
    <rect
       style="fill:#ffffff;fill-rule:evenodd;stroke:#000000;stroke-width:0.889;stroke-linecap:square;stop-color:#000000"
       id="rect824"
       width="14.274656"
       height="14.274656"
       x="141.12076"
       y="177.70505" />
    <g
       id="g967">
      <rect
         style="fill:#ffffff;fill-rule:evenodd;stroke:#000000;stroke-width:0.889;stroke-linecap:square;stop-color:#000000"
         id="rect892"
         width="14.274656"
         height="14.274656"
         x="69.423515"
         y="120.14703" />
      <rect
         style="fill:#ffffff;fill-rule:evenodd;stroke:#000000;stroke-width:0.889;stroke-linecap:square;stop-color:#000000"
         id="rect894"
         width="14.274656"
         height="14.274656"
         x="83.771446"
         y="120.14703" />
      <rect
         style="fill:#ffffff;fill-rule:evenodd;stroke:#000000;stroke-width:0.889;stroke-linecap:square;stop-color:#000000"
         id="rect896"
         width="14.274656"
         height="14.274656"
         x="98.16922"
         y="120.14703" />
      <rect
         style="fill:#ffffff;fill-rule:evenodd;stroke:#000000;stroke-width:0.889;stroke-linecap:square;stop-color:#000000"
         id="rect898"
         width="14.274656"
         height="14.274656"
         x="112.51715"
         y="120.14703" />
      <rect
         style="fill:#ffffff;fill-rule:evenodd;stroke:#000000;stroke-width:0.889;stroke-linecap:square;stop-color:#000000"
         id="rect900"
         width="14.274656"
         height="14.274656"
         x="69.423515"
         y="134.29782" />
      <rect
         style="fill:#ffffff;fill-rule:evenodd;stroke:#000000;stroke-width:0.889;stroke-linecap:square;stop-color:#000000"
         id="rect902"
         width="14.274656"
         height="14.274656"
         x="83.771446"
         y="134.29782" />
      <rect
         style="fill:#ffffff;fill-rule:evenodd;stroke:#000000;stroke-width:0.889;stroke-linecap:square;stop-color:#000000"
         id="rect904"
         width="14.274656"
         height="14.274656"
         x="98.16922"
         y="134.29782" />
      <rect
         style="fill:#ffffff;fill-rule:evenodd;stroke:#000000;stroke-width:0.889;stroke-linecap:square;stop-color:#000000"
         id="rect906"
         width="14.274656"
         height="14.274656"
         x="112.51715"
         y="134.29782" />
      <rect
         style="fill:#ffffff;fill-rule:evenodd;stroke:#000000;stroke-width:0.889;stroke-linecap:square;stop-color:#000000"
         id="rect908"
         width="14.274656"
         height="14.274656"
         x="69.423515"
         y="91.794327" />
      <rect
         style="fill:#ffffff;fill-rule:evenodd;stroke:#000000;stroke-width:0.889;stroke-linecap:square;stop-color:#000000"
         id="rect910"
         width="14.274656"
         height="14.274656"
         x="83.771446"
         y="91.794327" />
      <rect
         style="fill:#ffffff;fill-rule:evenodd;stroke:#000000;stroke-width:0.889;stroke-linecap:square;stop-color:#000000"
         id="rect912"
         width="14.274656"
         height="14.274656"
         x="98.16922"
         y="91.794327" />
      <rect
         style="fill:#ffffff;fill-rule:evenodd;stroke:#000000;stroke-width:0.889;stroke-linecap:square;stop-color:#000000"
         id="rect914"
         width="14.274656"
         height="14.274656"
         x="112.51715"
         y="91.794327" />
      <rect
         style="fill:#ffffff;fill-rule:evenodd;stroke:#000000;stroke-width:0.889;stroke-linecap:square;stop-color:#000000"
         id="rect916"
         width="14.274656"
         height="14.274656"
         x="69.423515"
         y="105.94511" />
      <rect
         style="fill:#ffffff;fill-rule:evenodd;stroke:#000000;stroke-width:0.889;stroke-linecap:square;stop-color:#000000"
         id="rect918"
         width="14.274656"
         height="14.274656"
         x="83.771446"
         y="105.94511" />
      <rect
         style="fill:#ffffff;fill-rule:evenodd;stroke:#000000;stroke-width:0.889;stroke-linecap:square;stop-color:#000000"
         id="rect920"
         width="14.274656"
         height="14.274656"
         x="98.16922"
         y="105.94511" />
      <rect
         style="fill:#ffffff;fill-rule:evenodd;stroke:#000000;stroke-width:0.889;stroke-linecap:square;stop-color:#000000"
         id="rect922"
         width="14.274656"
         height="14.274656"
         x="112.51715"
         y="105.94511" />
      <rect
         style="fill:#ffffff;fill-rule:evenodd;stroke:#000000;stroke-width:0.889;stroke-linecap:square;stop-color:#000000"
         id="rect924"
         width="14.274656"
         height="14.274656"
         x="126.81895"
         y="120.14703" />
      <rect
         style="fill:#ffffff;fill-rule:evenodd;stroke:#000000;stroke-width:0.889;stroke-linecap:square;stop-color:#000000"
         id="rect926"
         width="14.274656"
         height="14.274656"
         x="126.81895"
         y="134.29782" />
      <rect
         style="fill:#ffffff;fill-rule:evenodd;stroke:#000000;stroke-width:0.889;stroke-linecap:square;stop-color:#000000"
         id="rect928"
         width="14.274656"
         height="14.274656"
         x="126.81895"
         y="91.794327" />
      <rect
         style="fill:#ffffff;fill-rule:evenodd;stroke:#000000;stroke-width:0.889;stroke-linecap:square;stop-color:#000000"
         id="rect930"
         width="14.274656"
         height="14.274656"
         x="126.81895"
         y="105.94511" />
      <rect
         style="fill:#ffffff;fill-rule:evenodd;stroke:#000000;stroke-width:0.889;stroke-linecap:square;stop-color:#000000"
         id="rect932"
         width="14.274656"
         height="14.274656"
         x="69.423515"
         y="77.492523" />
      <rect
         style="fill:#ffffff;fill-rule:evenodd;stroke:#000000;stroke-width:0.889;stroke-linecap:square;stop-color:#000000"
         id="rect934"
         width="14.274656"
         height="14.274656"
         x="83.771446"
         y="77.492523" />
      <rect
         style="fill:#ffffff;fill-rule:evenodd;stroke:#000000;stroke-width:0.889;stroke-linecap:square;stop-color:#000000"
         id="rect936"
         width="14.274656"
         height="14.274656"
         x="98.16922"
         y="77.492523" />
      <rect
         style="fill:#ffffff;fill-rule:evenodd;stroke:#000000;stroke-width:0.889;stroke-linecap:square;stop-color:#000000"
         id="rect938"
         width="14.274656"
         height="14.274656"
         x="112.51715"
         y="77.492523" />
      <rect
         style="fill:#ffffff;fill-rule:evenodd;stroke:#000000;stroke-width:0.889;stroke-linecap:square;stop-color:#000000"
         id="rect940"
         width="14.274656"
         height="14.274656"
         x="126.81895"
         y="77.492523" />
    </g>
    <g
       id="g1029"
       transform="translate(2.8173141,5.5428619)">
      <rect
         style="fill:#ffffff;fill-rule:evenodd;stroke:#000000;stroke-width:0.827203;stroke-linecap:square;stop-color:#000000"
         id="rect1025"
         width="9.5081196"
         height="31.622538"
         x="49.89996"
         y="117.39444"
         ry="5.2861614" />
      <circle
         style="fill:#ffffff;fill-rule:evenodd;stroke:#000000;stroke-width:0.889;stroke-linecap:square;stop-color:#000000"
         id="path1023"
         cx="54.654022"
         cy="121.9108"
         r="4.5163593" />
    </g>
    <g
       id="g1035"
       transform="translate(97.513585,5.5583121)">
      <rect
         style="fill:#ffffff;fill-rule:evenodd;stroke:#000000;stroke-width:0.827203;stroke-linecap:square;stop-color:#000000"
         id="rect1031"
         width="9.5081196"
         height="31.622538"
         x="49.89996"
         y="117.39444"
         ry="5.2861614" />
      <circle
         style="fill:#ffffff;fill-rule:evenodd;stroke:#000000;stroke-width:0.889;stroke-linecap:square;stop-color:#000000"
         id="circle1033"
         cx="54.654022"
         cy="121.9108"
         r="4.5163593" />
    </g>
    <g
       id="g1041"
       transform="translate(2.817317,-68.021596)">
      <rect
         style="fill:#ffffff;fill-rule:evenodd;stroke:#000000;stroke-width:0.827203;stroke-linecap:square;stop-color:#000000"
         id="rect1037"
         width="9.5081196"
         height="31.622538"
         x="49.89996"
         y="117.39444"
         ry="5.2861614" />
      <circle
         style="fill:#ffffff;fill-rule:evenodd;stroke:#000000;stroke-width:0.889;stroke-linecap:square;stop-color:#000000"
         id="circle1039"
         cx="54.654022"
         cy="121.9108"
         r="4.5163593" />
    </g>
    <g
       id="g1047"
       transform="translate(97.513588,-68.006146)">
      <rect
         style="fill:#ffffff;fill-rule:evenodd;stroke:#000000;stroke-width:0.827203;stroke-linecap:square;stop-color:#000000"
         id="rect1043"
         width="9.5081196"
         height="31.622538"
         x="49.89996"
         y="117.39444"
         ry="5.2861614" />
      <circle
         style="fill:#ffffff;fill-rule:evenodd;stroke:#000000;stroke-width:0.889;stroke-linecap:square;stop-color:#000000"
         id="circle1045"
         cx="54.654022"
         cy="121.9108"
         r="4.5163593" />
    </g>
    <g
       id="g1053"
       transform="translate(2.817317,-30.874401)">
      <rect
         style="fill:#ffffff;fill-rule:evenodd;stroke:#000000;stroke-width:0.827203;stroke-linecap:square;stop-color:#000000"
         id="rect1049"
         width="9.5081196"
         height="31.622538"
         x="49.89996"
         y="117.39444"
         ry="5.2861614" />
      <circle
         style="fill:#ffffff;fill-rule:evenodd;stroke:#000000;stroke-width:0.889;stroke-linecap:square;stop-color:#000000"
         id="circle1051"
         cx="54.654022"
         cy="121.9108"
         r="4.5163593" />
    </g>
    <g
       id="g1059"
       transform="translate(97.513588,-30.858951)">
      <rect
         style="fill:#ffffff;fill-rule:evenodd;stroke:#000000;stroke-width:0.827203;stroke-linecap:square;stop-color:#000000"
         id="rect1055"
         width="9.5081196"
         height="31.622538"
         x="49.89996"
         y="117.39444"
         ry="5.2861614" />
      <circle
         style="fill:#ffffff;fill-rule:evenodd;stroke:#000000;stroke-width:0.889;stroke-linecap:square;stop-color:#000000"
         id="circle1057"
         cx="54.654022"
         cy="121.9108"
         r="4.5163593" />
    </g>
    <g
       id="g1065"
       transform="translate(127.61255,-20.107824)">
      <rect
         style="fill:#ffffff;fill-rule:evenodd;stroke:#000000;stroke-width:0.827203;stroke-linecap:square;stop-color:#000000"
         id="rect1061"
         width="9.714922"
         height="57.702274"
         x="49.89996"
         y="117.39444"
         ry="5.2861614" />
      <circle
         style="fill:#ffffff;fill-rule:evenodd;stroke:#000000;stroke-width:0.889;stroke-linecap:square;stop-color:#000000"
         id="circle1063"
         cx="54.654022"
         cy="121.9108"
         r="4.5163593" />
    </g>
    <rect
       style="fill:#ffffff;fill-rule:evenodd;stroke:#000000;stroke-width:0.889;stroke-linecap:square;stop-color:#000000"
       id="rect1067"
       width="30.25762"
       height="18.806452"
       x="167.40282"
       y="111.06451"
       ry="6.8847346" />
    <text
       xml:space="preserve"
       style="font-style:italic;font-weight:bold;font-size:5.64444px;font-family:Arial;-inkscape-font-specification:'Arial Bold Italic';fill:#000000;fill-rule:evenodd;stroke:none;stroke-width:0.889;stroke-linecap:square;stop-color:#000000"
       x="169.53947"
       y="118.96016"
       id="text1123"><tspan
         sodipodi:role="line"
         id="tspan1121"
         style="font-size:5.64444px;fill:#000000;stroke:none;stroke-width:0.889"
         x="169.53947"
         y="118.96016">PODUNK</tspan><tspan
         sodipodi:role="line"
         style="font-size:5.64444px;fill:#000000;stroke:none;stroke-width:0.889"
         x="169.53947"
         y="126.01572"
         id="tspan1125">LANDING</tspan></text>
    <rect
       style="fill:#ffffff;fill-rule:evenodd;stroke:#000000;stroke-width:0.889;stroke-linecap:square;stop-color:#000000"
       id="rect1229"
       width="24.129032"
       height="11.709678"
       x="170.67741"
       y="135.90321"
       ry="5.8548388" />
    <text
       xml:space="preserve"
       style="font-style:normal;font-variant:normal;font-weight:normal;font-stretch:normal;font-size:3.52778px;font-family:Arial;-inkscape-font-specification:Arial;text-align:center;text-anchor:middle;fill:#000000;fill-rule:evenodd;stroke:none;stroke-width:0.889;stroke-linecap:square;stop-color:#000000"
       x="182.69629"
       y="140.76587"
       id="text1233"><tspan
         sodipodi:role="line"
         id="tspan1231"
         style="font-style:normal;font-variant:normal;font-weight:normal;font-stretch:normal;font-size:3.52778px;font-family:Arial;-inkscape-font-specification:Arial;text-align:center;text-anchor:middle;fill:#000000;stroke:none;stroke-width:0.889"
         x="182.69629"
         y="140.76587">next stop</tspan><tspan
         sodipodi:role="line"
         style="font-style:normal;font-variant:normal;font-weight:normal;font-stretch:normal;font-size:3.52778px;font-family:Arial;-inkscape-font-specification:Arial;text-align:center;text-anchor:middle;fill:#000000;stroke:none;stroke-width:0.889"
         x="182.69629"
         y="145.1756"
         id="tspan1235">40 miles</tspan></text>
    <rect
       style="fill:#ffffff;fill-rule:evenodd;stroke:#000000;stroke-width:0.889;stroke-linecap:square;stop-color:#000000"
       id="rect1287"
       width="47.903225"
       height="64.901947"
       x="-15.258064"
       y="114.6129"
       ry="6.8847346" />
    <rect
       style="fill:#ffffff;fill-rule:evenodd;stroke:#000000;stroke-width:0.889;stroke-linecap:square;stop-color:#000000"
       id="rect1341"
       width="47.903225"
       height="64.901947"
       x="201.54839"
       y="115.29535"
       ry="6.8847346" />
    <rect
       style="fill:#ffffff;fill-rule:evenodd;stroke:#000000;stroke-width:0.889;stroke-linecap:square;stop-color:#000000"
       id="rect1343"
       width="48.347725"
       height="130.54709"
       x="-15.702564"
       y="-3.5379493"
       ry="6.8847346"
       rx="0" />
    <rect
       style="fill:#ffffff;fill-rule:evenodd;stroke:#000000;stroke-width:0.889;stroke-linecap:square;stop-color:#000000"
       id="rect1345"
       width="48.347725"
       height="130.54709"
       x="201.54839"
       y="-0.67613029"
       ry="6.8847346"
       rx="0" />
    <path
       style="fill:#ffffff;fill-rule:evenodd;stroke:#000000;stroke-width:0.889;stroke-linecap:square;stop-color:#000000"
       d="m -6.7419354,132.35484 c 1.6899654,11.76977 -3.3565696,22.44122 -1.4193549,34.06451 0.3300801,1.98048 -0.5182187,4.28614 0.3548388,6.03226"
       id="path1418" />
    <path
       style="fill:#ffffff;fill-rule:evenodd;stroke:#000000;stroke-width:0.889;stroke-linecap:square;stop-color:#000000"
       d="m 6.0322581,132.70967 c 0.3664656,1.57135 -0.362812,3.39556 0,4.96775 1.2762759,5.53053 4.1705259,10.10587 3.1935483,15.96774 -0.8859832,5.3159 -3.3448672,14.95543 -0.7096776,20.2258"
       id="path1420" />
    <path
       style="fill:#ffffff;fill-rule:evenodd;stroke:#000000;stroke-width:0.889;stroke-linecap:square;stop-color:#000000"
       d="m 22,132 c -0.300978,1.95023 0.386638,4.09906 0,6.03226 -0.820307,4.10153 -3.583928,7.31001 -4.258065,11.35484 -0.956927,5.74156 0.440308,10.98703 1.774194,16.32257 0.631107,2.52443 0,5.86525 0,8.51614"
       id="path1422" />
    <path
       style="fill:#ffffff;fill-rule:evenodd;stroke:#000000;stroke-width:0.889;stroke-linecap:square;stop-color:#000000"
       d="m 206.51613,135.19355 c -1.40791,12.34904 -1.41936,25.28444 -1.41936,37.6129"
       id="path1424" />
    <path
       style="fill:#ffffff;fill-rule:evenodd;stroke:#000000;stroke-width:0.889;stroke-linecap:square;stop-color:#000000"
       d="m 216.80645,136.96774 c 4.61069,11.54188 0.70968,23.44799 0.70968,35.12903"
       id="path1426" />
    <path
       style="fill:#ffffff;fill-rule:evenodd;stroke:#000000;stroke-width:0.889;stroke-linecap:square;stop-color:#000000"
       d="m 236.67742,137.32258 c 0,0.94624 0.15556,1.90535 0,2.83871 -0.49907,2.99438 -2.80421,5.5394 -3.54839,8.51613 -0.78292,3.13169 0.93189,5.94615 1.41935,8.87096 0.76135,4.56807 0,9.91568 0,14.54839"
       id="path1428" />
    <path
       style="fill:#ffffff;fill-rule:evenodd;stroke:#000000;stroke-width:0.889;stroke-linecap:square;stop-color:#000000"
       d="m 224.96774,135.54838 c -1.42663,13.11557 0,26.19644 0,39.3871"
       id="path1430" />
    <path
       style="fill:#ffffff;fill-rule:evenodd;stroke:#000000;stroke-width:0.889;stroke-linecap:square;stop-color:#000000"
       d="m 244.48387,135.19355 c -1.37985,13.1216 2.48239,26.97366 -0.70968,39.74193"
       id="path1432" />
    <path
       style="fill:#ffffff;fill-rule:evenodd;stroke:#000000;stroke-width:0.889;stroke-linecap:square;stop-color:#000000"
       d="m 28.032257,129.51613 c 0,2.3131 -0.255161,3.64408 0.354838,5.67742 4.414134,14.71377 0,20.34036 0,33.70967"
       id="path1434" />
    <path
       style="fill:#ffffff;fill-rule:evenodd;stroke:#000000;stroke-width:0.889;stroke-linecap:square;stop-color:#000000"
       d="m 12.508064,95.274192 c 0.09433,-2.911028 -1.550127,-6.23071 -4.1693544,-7.540323"
       id="path1440" />
    <path
       style="fill:#ffffff;fill-rule:evenodd;stroke:#000000;stroke-width:0.889;stroke-linecap:square;stop-color:#000000"
       d="m 12.774194,94.830645 c -1.112582,-4.309171 -0.797822,-6.475828 3.991935,-6.653226 0.796625,-0.02951 1.621132,-0.102042 2.306451,0.354838"
       id="path1442" />
    <path
       style="fill:none;fill-rule:evenodd;stroke:#000000;stroke-width:0.889;stroke-linecap:square;stop-color:#000000"
       d="m 12.241935,94.120966 c -0.436169,-2.167093 -1.486384,-6.557602 -0.709677,-8.693547 0.2701,-0.742775 1.240111,-1.417531 1.774194,-1.951614"
       id="path1444" />
    <path
       style="fill:none;fill-rule:evenodd;stroke:#000000;stroke-width:0.889;stroke-linecap:square;stop-color:#000000"
       d="M 16.233871,32.112902 C 16.072859,28.660129 11.924914,25.464489 9.3145159,24.66129"
       id="path1446" />
    <path
       style="fill:none;fill-rule:evenodd;stroke:#000000;stroke-width:0.889;stroke-linecap:square;stop-color:#000000"
       d="m 18.008064,19.516129 c -0.512887,0.341925 -0.368026,0.285753 -0.887097,1.241935 -1.884271,3.471026 -1.78323,7.044448 -1.153225,10.911291 0.702417,-1.390778 2.249907,-5.3528 3.903226,-5.766129 0.411392,-0.102848 0.993734,0 1.419355,0"
       id="path1448" />
    <path
       style="fill:none;fill-rule:evenodd;stroke:#000000;stroke-width:0.889;stroke-linecap:square;stop-color:#000000"
       d="M 24.395161,65.467741 C 24.234149,62.014968 20.086204,58.819328 17.475806,58.016129"
       id="path1450" />
    <path
       style="fill:none;fill-rule:evenodd;stroke:#000000;stroke-width:0.889;stroke-linecap:square;stop-color:#000000"
       d="m 26.169354,52.870968 c -0.512887,0.341925 -0.368026,0.285753 -0.887097,1.241935 -1.884271,3.471026 -1.78323,7.044448 -1.153225,10.911291 0.702417,-1.390778 2.249907,-5.3528 3.903226,-5.766129 0.411392,-0.102848 0.993734,0 1.419355,0"
       id="path1452" />
    <g
       id="g1460">
      <path
         style="fill:none;fill-rule:evenodd;stroke:#000000;stroke-width:0.889;stroke-linecap:square;stop-color:#000000"
         d="m 206.42742,104.5 c -0.16101,-3.45277 -4.30896,-6.648414 -6.91936,-7.451613"
         id="path1454" />
      <path
         style="fill:none;fill-rule:evenodd;stroke:#000000;stroke-width:0.889;stroke-linecap:square;stop-color:#000000"
         d="m 208.20161,91.903226 c -0.51288,0.341925 -0.36802,0.285753 -0.88709,1.241935 -1.88428,3.471026 -1.78323,7.044449 -1.15323,10.911289 0.70242,-1.39078 2.24991,-5.352798 3.90323,-5.766127 0.41139,-0.102848 0.99373,0 1.41935,0"
         id="path1456" />
    </g>
    <g
       id="g1466"
       transform="translate(-35.483871,-18.451613)">
      <path
         style="fill:none;fill-rule:evenodd;stroke:#000000;stroke-width:0.889;stroke-linecap:square;stop-color:#000000"
         d="m 206.42742,104.5 c -0.16101,-3.45277 -4.30896,-6.648414 -6.91936,-7.451613"
         id="path1462" />
      <path
         style="fill:none;fill-rule:evenodd;stroke:#000000;stroke-width:0.889;stroke-linecap:square;stop-color:#000000"
         d="m 208.20161,91.903226 c -0.51288,0.341925 -0.36802,0.285753 -0.88709,1.241935 -1.88428,3.471026 -1.78323,7.044449 -1.15323,10.911289 0.70242,-1.39078 2.24991,-5.352798 3.90323,-5.766127 0.41139,-0.102848 0.99373,0 1.41935,0"
         id="path1464" />
    </g>
    <g
       id="g1472"
       transform="translate(-19.870968,-33.354839)">
      <path
         style="fill:none;fill-rule:evenodd;stroke:#000000;stroke-width:0.889;stroke-linecap:square;stop-color:#000000"
         d="m 206.42742,104.5 c -0.16101,-3.45277 -4.30896,-6.648414 -6.91936,-7.451613"
         id="path1468" />
      <path
         style="fill:none;fill-rule:evenodd;stroke:#000000;stroke-width:0.889;stroke-linecap:square;stop-color:#000000"
         d="m 208.20161,91.903226 c -0.51288,0.341925 -0.36802,0.285753 -0.88709,1.241935 -1.88428,3.471026 -1.78323,7.044449 -1.15323,10.911289 0.70242,-1.39078 2.24991,-5.352798 3.90323,-5.766127 0.41139,-0.102848 0.99373,0 1.41935,0"
         id="path1470" />
    </g>
    <g
       id="g1478"
       transform="translate(-19.161291,-9.9354842)">
      <path
         style="fill:none;fill-rule:evenodd;stroke:#000000;stroke-width:0.889;stroke-linecap:square;stop-color:#000000"
         d="m 206.42742,104.5 c -0.16101,-3.45277 -4.30896,-6.648414 -6.91936,-7.451613"
         id="path1474" />
      <path
         style="fill:none;fill-rule:evenodd;stroke:#000000;stroke-width:0.889;stroke-linecap:square;stop-color:#000000"
         d="m 208.20161,91.903226 c -0.51288,0.341925 -0.36802,0.285753 -0.88709,1.241935 -1.88428,3.471026 -1.78323,7.044449 -1.15323,10.911289 0.70242,-1.39078 2.24991,-5.352798 3.90323,-5.766127 0.41139,-0.102848 0.99373,0 1.41935,0"
         id="path1476" />
    </g>
    <g
       id="g1484"
       transform="translate(-158.25807,25.193548)">
      <path
         style="fill:none;fill-rule:evenodd;stroke:#000000;stroke-width:0.889;stroke-linecap:square;stop-color:#000000"
         d="m 206.42742,104.5 c -0.16101,-3.45277 -4.30896,-6.648414 -6.91936,-7.451613"
         id="path1480" />
      <path
         style="fill:none;fill-rule:evenodd;stroke:#000000;stroke-width:0.889;stroke-linecap:square;stop-color:#000000"
         d="m 208.20161,91.903226 c -0.51288,0.341925 -0.36802,0.285753 -0.88709,1.241935 -1.88428,3.471026 -1.78323,7.044449 -1.15323,10.911289 0.70242,-1.39078 2.24991,-5.352798 3.90323,-5.766127 0.41139,-0.102848 0.99373,0 1.41935,0"
         id="path1482" />
    </g>
    <g
       id="g1490"
       transform="translate(-163.58065,-7.4516133)">
      <path
         style="fill:none;fill-rule:evenodd;stroke:#000000;stroke-width:0.889;stroke-linecap:square;stop-color:#000000"
         d="m 206.42742,104.5 c -0.16101,-3.45277 -4.30896,-6.648414 -6.91936,-7.451613"
         id="path1486" />
      <path
         style="fill:none;fill-rule:evenodd;stroke:#000000;stroke-width:0.889;stroke-linecap:square;stop-color:#000000"
         d="m 208.20161,91.903226 c -0.51288,0.341925 -0.36802,0.285753 -0.88709,1.241935 -1.88428,3.471026 -1.78323,7.044449 -1.15323,10.911289 0.70242,-1.39078 2.24991,-5.352798 3.90323,-5.766127 0.41139,-0.102848 0.99373,0 1.41935,0"
         id="path1488" />
    </g>
    <g
       id="g1496"
       transform="translate(-157.90323,-56.419355)">
      <path
         style="fill:none;fill-rule:evenodd;stroke:#000000;stroke-width:0.889;stroke-linecap:square;stop-color:#000000"
         d="m 206.42742,104.5 c -0.16101,-3.45277 -4.30896,-6.648414 -6.91936,-7.451613"
         id="path1492" />
      <path
         style="fill:none;fill-rule:evenodd;stroke:#000000;stroke-width:0.889;stroke-linecap:square;stop-color:#000000"
         d="m 208.20161,91.903226 c -0.51288,0.341925 -0.36802,0.285753 -0.88709,1.241935 -1.88428,3.471026 -1.78323,7.044449 -1.15323,10.911289 0.70242,-1.39078 2.24991,-5.352798 3.90323,-5.766127 0.41139,-0.102848 0.99373,0 1.41935,0"
         id="path1494" />
    </g>
    <g
       id="g1502"
       transform="translate(-40.096778,-59.258065)">
      <path
         style="fill:none;fill-rule:evenodd;stroke:#000000;stroke-width:0.889;stroke-linecap:square;stop-color:#000000"
         d="m 206.42742,104.5 c -0.16101,-3.45277 -4.30896,-6.648414 -6.91936,-7.451613"
         id="path1498" />
      <path
         style="fill:none;fill-rule:evenodd;stroke:#000000;stroke-width:0.889;stroke-linecap:square;stop-color:#000000"
         d="m 208.20161,91.903226 c -0.51288,0.341925 -0.36802,0.285753 -0.88709,1.241935 -1.88428,3.471026 -1.78323,7.044449 -1.15323,10.911289 0.70242,-1.39078 2.24991,-5.352798 3.90323,-5.766127 0.41139,-0.102848 0.99373,0 1.41935,0"
         id="path1500" />
    </g>
    <g
       id="g1508"
       transform="translate(-20.22581,-69.548388)">
      <path
         style="fill:none;fill-rule:evenodd;stroke:#000000;stroke-width:0.889;stroke-linecap:square;stop-color:#000000"
         d="m 206.42742,104.5 c -0.16101,-3.45277 -4.30896,-6.648414 -6.91936,-7.451613"
         id="path1504" />
      <path
         style="fill:none;fill-rule:evenodd;stroke:#000000;stroke-width:0.889;stroke-linecap:square;stop-color:#000000"
         d="m 208.20161,91.903226 c -0.51288,0.341925 -0.36802,0.285753 -0.88709,1.241935 -1.88428,3.471026 -1.78323,7.044449 -1.15323,10.911289 0.70242,-1.39078 2.24991,-5.352798 3.90323,-5.766127 0.41139,-0.102848 0.99373,0 1.41935,0"
         id="path1506" />
    </g>
    <g
       id="g1514"
       transform="translate(0.35483516,-61.741936)">
      <path
         style="fill:none;fill-rule:evenodd;stroke:#000000;stroke-width:0.889;stroke-linecap:square;stop-color:#000000"
         d="m 206.42742,104.5 c -0.16101,-3.45277 -4.30896,-6.648414 -6.91936,-7.451613"
         id="path1510" />
      <path
         style="fill:none;fill-rule:evenodd;stroke:#000000;stroke-width:0.889;stroke-linecap:square;stop-color:#000000"
         d="m 208.20161,91.903226 c -0.51288,0.341925 -0.36802,0.285753 -0.88709,1.241935 -1.88428,3.471026 -1.78323,7.044449 -1.15323,10.911289 0.70242,-1.39078 2.24991,-5.352798 3.90323,-5.766127 0.41139,-0.102848 0.99373,0 1.41935,0"
         id="path1512" />
      <path
         style="fill:none;fill-rule:evenodd;stroke:#000000;stroke-width:0.889;stroke-linecap:square;stop-color:#000000"
         d="m 208.20161,91.903226 c -0.51288,0.341925 -0.36802,0.285753 -0.88709,1.241935 -1.88428,3.471026 -1.78323,7.044449 -1.15323,10.911289 0.70242,-1.39078 2.24991,-5.352798 3.90323,-5.766127 0.41139,-0.102848 0.99373,0 1.41935,0"
         id="path1563" />
    </g>
    <g
       id="g1618"
       transform="translate(-23.419358,58.193547)">
      <path
         style="fill:none;fill-rule:evenodd;stroke:#000000;stroke-width:0.889;stroke-linecap:square;stop-color:#000000"
         d="m 206.42742,104.5 c -0.16101,-3.45277 -4.30896,-6.648414 -6.91936,-7.451613"
         id="path1614" />
      <path
         style="fill:none;fill-rule:evenodd;stroke:#000000;stroke-width:0.889;stroke-linecap:square;stop-color:#000000"
         d="m 208.20161,91.903226 c -0.51288,0.341925 -0.36802,0.285753 -0.88709,1.241935 -1.88428,3.471026 -1.78323,7.044449 -1.15323,10.911289 0.70242,-1.39078 2.24991,-5.352798 3.90323,-5.766127 0.41139,-0.102848 0.99373,0 1.41935,0"
         id="path1616" />
    </g>
    <g
       id="g1624"
       transform="translate(-153.29033,52.161289)">
      <path
         style="fill:none;fill-rule:evenodd;stroke:#000000;stroke-width:0.889;stroke-linecap:square;stop-color:#000000"
         d="m 206.42742,104.5 c -0.16101,-3.45277 -4.30896,-6.648414 -6.91936,-7.451613"
         id="path1620" />
      <path
         style="fill:none;fill-rule:evenodd;stroke:#000000;stroke-width:0.889;stroke-linecap:square;stop-color:#000000"
         d="m 208.20161,91.903226 c -0.51288,0.341925 -0.36802,0.285753 -0.88709,1.241935 -1.88428,3.471026 -1.78323,7.044449 -1.15323,10.911289 0.70242,-1.39078 2.24991,-5.352798 3.90323,-5.766127 0.41139,-0.102848 0.99373,0 1.41935,0"
         id="path1622" />
    </g>
    <g
       id="g1630"
       transform="translate(-163.22581,59.258063)">
      <path
         style="fill:none;fill-rule:evenodd;stroke:#000000;stroke-width:0.889;stroke-linecap:square;stop-color:#000000"
         d="m 206.42742,104.5 c -0.16101,-3.45277 -4.30896,-6.648414 -6.91936,-7.451613"
         id="path1626" />
      <path
         style="fill:none;fill-rule:evenodd;stroke:#000000;stroke-width:0.889;stroke-linecap:square;stop-color:#000000"
         d="m 208.20161,91.903226 c -0.51288,0.341925 -0.36802,0.285753 -0.88709,1.241935 -1.88428,3.471026 -1.78323,7.044449 -1.15323,10.911289 0.70242,-1.39078 2.24991,-5.352798 3.90323,-5.766127 0.41139,-0.102848 0.99373,0 1.41935,0"
         id="path1628" />
    </g>
    <rect
       style="fill:none;fill-rule:evenodd;stroke:#000000;stroke-width:0.889;stroke-linecap:square;stop-color:#000000"
       id="rect1961"
       width="193.19981"
       height="3.5127239"
       x="9.0327187"
       y="276.50159"
       ry="1.756362" />
    <rect
       style="fill:#000000;fill-rule:evenodd;stroke:#000000;stroke-width:0.889;stroke-linecap:square;stop-color:#000000"
       id="rect2015"
       width="17.061802"
       height="10.538172"
       x="5.018177"
       y="272.48703"
       ry="4.0145416" />
    <circle
       style="fill:#ffffff;fill-rule:evenodd;stroke:#000000;stroke-width:0.889;stroke-linecap:square;stop-color:#000000"
       id="path2017"
       cx="56.705399"
       cy="278.50885"
       r="6.0218129" />
    <circle
       style="fill:#ffffff;fill-rule:evenodd;stroke:#000000;stroke-width:0.889;stroke-linecap:square;stop-color:#000000"
       id="circle2019"
       cx="81.356293"
       cy="278.50885"
       r="6.0218129" />
    <circle
       style="fill:#ffffff;fill-rule:evenodd;stroke:#000000;stroke-width:0.889;stroke-linecap:square;stop-color:#000000"
       id="circle2021"
       cx="125.4355"
       cy="278.28308"
       r="6.0218129" />
    <circle
       style="fill:#ffffff;fill-rule:evenodd;stroke:#000000;stroke-width:0.889;stroke-linecap:square;stop-color:#000000"
       id="circle2023"
       cx="188.33829"
       cy="278.23447"
       r="6.0218129" />
    <text
       xml:space="preserve"
       style="font-style:normal;font-variant:normal;font-weight:normal;font-stretch:normal;font-size:3.52777px;font-family:Arial;-inkscape-font-specification:Arial;text-align:center;text-anchor:middle;fill:#ffffff;fill-rule:evenodd;stroke:#000000;stroke-width:0.889;stroke-linecap:square;stop-color:#000000"
       x="52.435066"
       y="291.05429"
       id="text2027"><tspan
         sodipodi:role="line"
         id="tspan2025"
         style="stroke-width:0.889"
         x="52.435066"
         y="291.05429" /></text>
    <text
       xml:space="preserve"
       style="font-style:normal;font-variant:normal;font-weight:normal;font-stretch:normal;font-size:3.52778px;font-family:Arial;-inkscape-font-specification:Arial;text-align:center;text-anchor:middle;fill:#000000;fill-rule:evenodd;stroke:none;stroke-width:0.889;stroke-linecap:square;stop-color:#000000"
       x="56.751045"
       y="289.90295"
       id="text2039"><tspan
         sodipodi:role="line"
         style="font-style:normal;font-variant:normal;font-weight:normal;font-stretch:normal;font-size:3.52778px;font-family:Arial;-inkscape-font-specification:Arial;text-align:center;text-anchor:middle;fill:#000000;stroke:none;stroke-width:0.889"
         x="56.751045"
         y="289.90295"
         id="tspan2037">Duckvill</tspan><tspan
         sodipodi:role="line"
         style="font-style:normal;font-variant:normal;font-weight:normal;font-stretch:normal;font-size:3.52778px;font-family:Arial;-inkscape-font-specification:Arial;text-align:center;text-anchor:middle;fill:#000000;stroke:none;stroke-width:0.889"
         x="56.751045"
         y="294.31268"
         id="tspan2043">40 miles</tspan></text>
  </g>
</svg>
